/* XPM */
static char * bottom_active_xpm[] = {
"7 7 3 1",
" 	c None",
".	c #000000",
"+	c #75D1C7",
".......",
"+++++++",
".......",
".......",
"+++++++",
"+++++++",
"......."};
