/* XPM */
static char * bottom_left_inactive_xpm[] = {
"26 26 14 1",
" 	c None",
".	c #000000",
"+	c #3A6863",
"@	c #060C0B",
"#	c #335C57",
"$	c #24413E",
"%	c #040707",
"&	c #152625",
"*	c #345D58",
"=	c #3B6964",
"-	c #38645F",
";	c #182B29",
">	c #274643",
",	c #080F0F",
".++...+.                  ",
".++...+.                  ",
".++...+.                  ",
".++...+.                  ",
".++...+.                  ",
".++...+.                  ",
".++...+.                  ",
".++...+.                  ",
".++...+.                  ",
".++...+.                  ",
".++...+.                  ",
".++...+.                  ",
".++...+.                  ",
".++...+.                  ",
".++...+.                  ",
".++...+.                  ",
".++...+.                  ",
".++...+.                  ",
".++...+@                  ",
".++...#$@.................",
".++%..&*====++++++++++++++",
".-+;......................",
".>++;%....................",
" ,++++++++++++++++++++++++",
" .,>-+++++++++++++++++++++",
"   ......................."};
