/* XPM */
static char * bottom_right_active_xpm[] = {
"26 26 12 1",
" 	c None",
".	c #000000",
"+	c #75D1C7",
"@	c #0D1817",
"#	c #49837C",
"$	c #67B8AF",
"%	c #2B4D4A",
"&	c #080F0E",
"*	c #315753",
"=	c #70C8BF",
"-	c #4F8D87",
";	c #111F1E",
"...................+...++.",
"...................+...++.",
"...................+...++.",
"...................+...++.",
"...................+...++.",
"...................+...++.",
"...................+...++.",
"...................+...++.",
"...................+...++.",
"...................+...++.",
"...................+...++.",
"...................+...++.",
"...................+...++.",
"...................+...++.",
"...................+...++.",
"...................+...++.",
"...................+...++.",
"...................+...++.",
"..................@+...++.",
".................@#$...++.",
"++++++++++++++++++$%..&++.",
"......................*+=.",
"....................&*++-.",
"++++++++++++++++++++++++; ",
"+++++++++++++++++++++=-;. ",
".......................   "};
