/* XPM */
static char * close_active_xpm[] = {
"14 24 4 1",
" 	c None",
".	c #000000",
"+	c #75D1C7",
"@	c #69BBB2",
"..............",
"++++++++++++++",
"++++++++++++++",
"..............",
"..............",
"++++++++++++++",
"..............",
"..............",
".@++++++++++@.",
".+..........+.",
".+..........+.",
".+..........+.",
".+..........+.",
".+..........+.",
".+..........+.",
".+..........+.",
".+..........+.",
".+..........+.",
".@++++++++++@.",
"..............",
"..............",
"..............",
"..............",
".............."};
