/* XPM */
static char * close_inactive_xpm[] = {
"14 24 3 1",
" 	c None",
".	c #000000",
"+	c #3A6863",
"..............",
"++++++++++++++",
"++++++++++++++",
"..............",
"..............",
"++++++++++++++",
"..............",
"..............",
".++++++++++++.",
".+..........+.",
".+..........+.",
".+..........+.",
".+..........+.",
".+..........+.",
".+..........+.",
".+..........+.",
".+..........+.",
".+..........+.",
".++++++++++++.",
"..............",
"..............",
"..............",
"..............",
".............."};
