/* XPM */
static char * left_active_xpm[] = {
"8 13 3 1",
" 	c None",
".	c #000000",
"+	c #75D1C7",
".++...+.",
".++...+.",
".++...+.",
".++...+.",
".++...+.",
".++...+.",
".++...+.",
".++...+.",
".++...+.",
".++...+.",
".++...+.",
".++...+.",
".++...+."};
