/* XPM */
static char * top_left_active_xpm[] = {
"13 24 12 1",
" 	c None",
".	c #000000",
"+	c #111F1E",
"@	c #4F8D87",
"#	c #70C8BF",
"$	c #75D1C7",
"%	c #315753",
"&	c #080F0E",
"*	c #2B4D4A",
"=	c #67B8AF",
"-	c #49837C",
";	c #0D1817",
"   ..........",
" .+@#$$$$$$$$",
" +$$$$$$$$$$$",
".@$$%&.......",
".#$%.........",
".$$&..*=$$$$$",
".$$...=-;....",
".$$...$;.....",
".$$...$......",
".$$...$......",
".$$...$......",
".$$...$......",
".$$...$......",
".$$...$......",
".$$...$......",
".$$...$......",
".$$...$......",
".$$...$......",
".$$...$......",
".$$...$......",
".$$...$......",
".$$...$......",
".$$...$......",
".$$...$......"};
