/* XPM */
static char * left_inactive_xpm[] = {
"8 13 3 1",
" 	c None",
".	c #000000",
"+	c #3A6863",
".++...+.",
".++...+.",
".++...+.",
".++...+.",
".++...+.",
".++...+.",
".++...+.",
".++...+.",
".++...+.",
".++...+.",
".++...+.",
".++...+.",
".++...+."};
